<svg xmlns="http://www.w3.org/2000/svg" version="1.1" xmlns:xlink="http://www.w3.org/1999/xlink" xmlns:svgjs="http://svgjs.dev/svgjs" width="2000" height="1500" viewBox="0 0 2000 1500"><rect width="2000" height="1500" fill="#000000"></rect><g transform="matrix(0.4444444444444444,0,0,0.4444444444444444,555.5556208333335,250)"><svg viewBox="0 0 320 360" data-background-color="#000000" preserveAspectRatio="xMidYMid meet" height="2250" width="2000" xmlns="http://www.w3.org/2000/svg" xmlns:xlink="http://www.w3.org/1999/xlink"><g id="tight-bounds" transform="matrix(1,0,0,1,0.000023499999997511622,0)"><svg viewBox="0 0 320 360" height="360" width="320"><g><svg></svg></g><g><svg viewBox="0 0 320 360" height="360" width="320"><g><path transform="translate(-74.99272,-51.79039) scale(4.65793,4.65793)" d="M20.6 59.9l0.8 1-0.4-1.3c-0.1-0.6-0.8 0.1-0.4 0.3M21.5 59.3c0.3 0.5 0.6 1 0.6 1.5 0 0.7 0.6 1 1.1 1.2-0.7-0.8-1.1-3-1.7-2.7M59.9 16.9c1.7 0 3.3-0.2 5.1 0.2 4.4 1.1 8.1 3.3 10.6 6.4l7 11.2c0.3 2.8 0.9 5.9 0.8 9.3 0.7 0 0.6-1 1.4-1.2-0.8 2-1.2 4.5-1.4 7.4-0.5-1.6 0-4 0.1-5.3-0.7 1.1-1.1 0.3-1.1-0.2 0.1-0.8-0.3-0.7-0.6-1-1.1-1-1.8-2.1-2.6-3.8 0.5-1.3 0.6-3.2-1-4.2-0.5-0.3-1.1-0.8-1.4-1.6-0.4-1.1-1.1-2.4-0.9-4.1 0.1-0.5-1.5 1.1-2.4 0.4-3.9-2.7-7.8-5.8-12.5-8.4-2.5 0-4.3-0.9-5.2-2-0.8-1-0.2-2.3 1-2.4 0.7 0 1.5-0.2 2.1 0.2 0.1-0.4 0.5-0.9 1-0.9M50 14.6l0.2 0.1c1 0.2 1.5 1.6 2.6 1.1 0 0.7 0.1 1.4-0.1 1.9-0.3 0.8-1.2 0.8-1.9 0.8-6.7-0.4-10.6 2.4-14.7 4.8-1.1 0.7-2.3 1.2-3.2 2.1-4.3 4-9 7.7-10.1 15.1l-0.9 8.2c-0.1 0.9-1.1 1.8-0.9 2.9l0.7 4.9c-0.7-0.7-1.1 0.2-0.9 0.6 0.1 0.3 0.5 1.3 1.1 0.4 0.8 1.5 1.6 4.4 2.7 5.7 3.4 4 7.8 7.6 11.4 11.2 0.9-0.2 1.6-0.2 1.8-0.8 0.3 0.6-0.3 1.2-0.8 1.3 1.6 1 3.4 1.9 5.8 2.1 3.1 0.2 6 0.7 8.7 1.4 1.4-0.4 2.8-0.6 4.3-0.7 0.5 0 0.8-0.8 1.4-1l0.1-1c0.6 0.9 0.5-0.3 0.1-0.9 0.7 0.6 0.9 1.1 1.2 1.5 0-0.3 0.8-1.4 0.8-0.1l0.2-1.3c0.3-0.2 0.4 1.1 0.7 0.2 0.3-0.9 0.9-0.2 1.5-0.5-0.2 0.4-0.1 1.2 0.6 0.7l0.8-0.7c0.5 1.2 1.3 0.7 1.7 0.5 4.4-2.8 8.8-6.1 13-9.4l-0.1 1.3 0.5-1.6c0.5 0.5 0.9 0.1 1.1-0.2 0.6-1 1.4-2 2.7-2.9-1.6 4.3-3.5 7.7-5.9 10.5l-1 1.2c0 0.7-0.2 1.6-1 1.7-0.4 0.1-1.2-0.2-1.8 0.4-0.3 0.4 0.7 1.2-0.1 0.6-0.7-0.5-1.4 0-2.2 0.2-0.6 0.2 0.4 0.8 0.6 1.2 0.2 0.4 0.4 0.8 0.3 1.3l-1.1-1.2c-1.3 0.7-2.1 2-3.2 3-0.5 0.4-0.3 1.1-0.3 1.7-0.7 0-1.5-0.2-1.9 0.2-0.3 0.4-0.2 1-0.2 1.6-1-0.1-1.1-1.6-2-1.3-0.9 0.2-1.9 0.3-2.7 0.8 0.6 1.2-1 0.5-0.8 0.7-1.5-0.9-2.8-1.6-4.4-1-3.4-1.1-7.6-0.6-10.7-0.2 0-0.5 0.1-1-0.1-1.1-0.2 0.5-0.8 0.3-0.7 0.3-1.9-1.3-3.8-2.1-5.8-3.2-1.8 0.2-3.5-0.7-4-1.2-1.4-1.3-3-0.6-4.3-0.9-2.8-0.7-3.8-3.6-4.1-5.6-0.2-1-1-1.4-1.3-1.3-1.3-4.2-3.3-8-4.9-11.9-0.4-1-0.3-2-0.3-3.1 0.5 0.2 1 0.1 0.9-0.6-0.5-3.3-1.7-5.8-3-8.2 0.7-3.4 0.8-7.4 2.4-10.4 1.4-2.7 4-4.1 5.8-6.4 0.6-0.8 0.6-1.9 1.2-2.6 2-2 4-4.1 6.2-5.9 1-0.8 2.2 0 3.7-0.3 0.5-1.8 2.5-3.4 4.4-2.9 0.8 0.2 2.4-1.9 2.9-2.1 0.8-0.3 0.4 0.8 0.4 1.5 1.9-1.5 4.5-2.3 6.9-3.2" fill="#2e9315" fill-rule="nonzero" stroke="none" stroke-width="1" stroke-linecap="butt" stroke-linejoin="miter" stroke-miterlimit="10" stroke-dasharray="" stroke-dashoffset="0" font-family="none" font-weight="none" font-size="none" text-anchor="none" style="mix-blend-mode: normal" data-fill-palette-color="tertiary"></path></g><g transform="matrix(1,0,0,1,95.77257391121347,90)"><svg viewBox="0 0 128.45485217757306 180" height="180" width="128.45485217757306"><g><svg viewBox="0 0 128.45485217757306 180" height="180" width="128.45485217757306"><g><svg viewBox="0 0 192 269.0439435656743" height="180" width="128.45485217757306"><g transform="matrix(1,0,0,1,0,148.16128156917688)"><svg viewBox="0 0 192 120.88266199649739" height="120.88266199649739" width="192"><g id="textblocktransform"><svg viewBox="0 0 192 120.88266199649739" height="120.88266199649739" width="192" id="textblock"><g><svg viewBox="0 0 192 120.88266199649739" height="120.88266199649739" width="192"><g transform="matrix(1,0,0,1,0,0)"><svg width="192" viewBox="2.5 -35.45 57.1 35.95" height="120.88266199649739" data-palette-color="#2e9315"><path d="M2.5-2.3L2.5-2.3 2.5-32.3Q2.5-33.55 3.13-34.27 3.75-35 4.75-35L4.75-35 13.1-35Q21.05-35 25.18-31 29.3-27 29.3-18.4L29.3-18.4Q29.3 0 13.6 0L13.6 0 5.05 0Q2.5 0 2.5-2.3ZM12.6-25.5L12.1-25.5 12.1-10.55Q12.1-9.5 12.25-9.22 12.4-8.95 13.15-8.95L13.15-8.95Q15.9-8.95 17.32-11 18.75-13.05 18.75-17.82 18.75-22.6 17.28-24.05 15.8-25.5 12.6-25.5L12.6-25.5ZM51.8-10.45L51.8-10.45 51.9-17.25Q51.9-17.95 53.35-18.18 54.8-18.4 55.75-18.4L55.75-18.4 57.7-18.25Q59.6-17.95 59.6-17.2L59.6-17.2 59.4-1.55Q58.4-0.85 55.37-0.18 52.35 0.5 48.45 0.5L48.45 0.5Q41.2 0.5 36.75-4.2 32.3-8.9 32.3-18L32.3-18Q32.3-25.75 36.65-30.6 41-35.45 48.7-35.45L48.7-35.45Q52.2-35.45 55.02-34.77 57.85-34.1 58.9-32.95L58.9-32.95Q58.95-32.55 58.95-31.45 58.95-30.35 58.2-28.33 57.45-26.3 56.5-25.3 55.55-24.3 55.12-24.3 54.7-24.3 54.22-24.68 53.75-25.05 52.35-25.48 50.95-25.9 49.65-25.9L49.65-25.9Q46.55-25.9 44.62-23.9 42.7-21.9 42.7-17.7 42.7-13.5 44.67-11.33 46.65-9.15 49.22-9.15 51.8-9.15 51.8-10.45Z" opacity="1" transform="matrix(1,0,0,1,0,0)" fill="#2e9315" class="wordmark-text-0" data-fill-palette-color="primary" id="text-0"></path></svg></g></svg></g></svg></g></svg></g><g transform="matrix(1,0,0,1,36.672,0)"><svg viewBox="0 0 118.656 130.5216" height="130.5216" width="118.656"><g><svg xmlns="http://www.w3.org/2000/svg" xmlns:xlink="http://www.w3.org/1999/xlink" version="1.1" x="0" y="0" viewBox="25 20 50 55" enable-background="new 0 0 100 100" xml:space="preserve" height="130.5216" width="118.656" class="icon-icon-0" data-fill-palette-color="accent" id="icon-0"><g fill="#2e9315" data-fill-palette-color="accent"><path d="M50 75c-13.785 0-25-11.421-25-25.458 0-11.417 7.539-21.508 18.334-24.542l0.985 3.635c-9.194 2.584-15.616 11.181-15.616 20.906 0 11.958 9.554 21.686 21.296 21.686 11.744 0 21.296-9.728 21.296-21.686 0-9.727-6.421-18.324-15.617-20.907L56.666 25C67.461 28.033 75 38.125 75 49.542 75 63.579 63.784 75 50 75z" fill="#2e9315" data-fill-palette-color="accent"></path><rect x="48" y="20" width="4" height="13" fill="#2e9315" data-fill-palette-color="accent"></rect></g></svg></g></svg></g><g></g></svg></g></svg></g></svg></g></svg></g><defs></defs></svg><rect width="320" height="360" fill="none" stroke="none" visibility="hidden"></rect></g></svg></g></svg>